<svg width="75.000000" height="75.000000" viewBox="0 0 75 75" fill="none" xmlns="http://www.w3.org/2000/svg" xmlns:xlink="http://www.w3.org/1999/xlink">
	<desc>
			Created with Pixso.
	</desc>
	<defs>
		<clipPath id="clip1_116">
			<rect id="bi:display" rx="-0.500000" width="74.000000" height="74.000000" transform="translate(0.500000 0.500000)" fill="white" fill-opacity="0"/>
		</clipPath>
	</defs>
	<rect id="bi:display" rx="-0.500000" width="74.000000" height="74.000000" transform="translate(0.500000 0.500000)" fill="#FFFFFF" fill-opacity="0"/>
	<g clip-path="url(#clip1_116)">
		<path id="Vector" d="M0 18.75C0 18.75 0 9.37 9.37 9.37L65.62 9.37C65.62 9.37 75 9.37 75 18.75L75 46.87C75 46.87 75 56.25 65.62 56.25L46.87 56.25C46.87 59.37 47.26 61.72 48.04 63.28L51.56 63.28C52.18 63.28 52.78 63.52 53.21 63.96C53.65 64.4 53.9 65 53.9 65.62C53.9 66.24 53.65 66.84 53.21 67.28C52.78 67.72 52.18 67.96 51.56 67.96L23.43 67.96C22.81 67.96 22.21 67.72 21.78 67.28C21.34 66.84 21.09 66.24 21.09 65.62C21.09 65 21.34 64.4 21.78 63.96C22.21 63.52 22.81 63.28 23.43 63.28L26.95 63.28C27.73 61.72 28.12 59.37 28.12 56.25L9.37 56.25C9.37 56.25 0 56.25 0 46.87L0 18.75ZM6.55 14.74C6.03 15.1 5.62 15.58 5.36 16.15C4.96 16.98 4.73 17.88 4.68 18.79L4.68 46.87C4.68 48.39 5.05 49.22 5.36 49.69C5.69 50.18 6.16 50.57 6.78 50.88C7.57 51.27 8.42 51.49 9.3 51.55L9.42 51.56L65.62 51.56C67.14 51.56 67.97 51.19 68.44 50.88C68.96 50.52 69.37 50.03 69.63 49.46C70.02 48.67 70.24 47.82 70.3 46.94L70.31 46.82L70.31 18.75C70.31 17.22 69.94 16.39 69.63 15.92C69.27 15.41 68.78 15 68.21 14.73C67.39 14.33 66.49 14.1 65.57 14.06L9.37 14.06C7.85 14.06 7.02 14.42 6.55 14.74Z" fill="#00C4F0" fill-opacity="1.000000" fill-rule="nonzero"/>
	</g>
</svg>
