<svg width="75.000000" height="75.000000" viewBox="0 0 75 75" fill="none" xmlns="http://www.w3.org/2000/svg" xmlns:xlink="http://www.w3.org/1999/xlink">
	<desc>
			Created with Pixso.
	</desc>
	<defs>
		<clipPath id="clip1_101">
			<rect id="fontisto:nav-icon-list" rx="-0.500000" width="74.000000" height="74.000000" transform="translate(0.500000 0.500000)" fill="white" fill-opacity="0"/>
		</clipPath>
	</defs>
	<rect id="fontisto:nav-icon-list" rx="-0.500000" width="74.000000" height="74.000000" transform="translate(0.500000 0.500000)" fill="#FFFFFF" fill-opacity="0"/>
	<g clip-path="url(#clip1_101)">
		<path id="Vector" d="M19.24 0L74.06 0L74.06 16.3L19.24 16.3L19.24 0Z" fill="#00C4F0" fill-opacity="1.000000" fill-rule="nonzero"/>
		<path id="Vector" d="M19.24 29.34L74.06 29.34L74.06 45.65L19.24 45.65L19.24 29.34Z" fill="#00C4F0" fill-opacity="1.000000" fill-rule="nonzero"/>
		<path id="Vector" d="M19.24 58.69L74.06 58.69L74.06 75L19.24 75L19.24 58.69Z" fill="#00C4F0" fill-opacity="1.000000" fill-rule="nonzero"/>
		<path id="Vector" d="M0 0L13.97 0L13.97 16.3L0 16.3L0 0Z" fill="#00C4F0" fill-opacity="1.000000" fill-rule="nonzero"/>
		<path id="Vector" d="M0 29.34L13.97 29.34L13.97 45.65L0 45.65L0 29.34Z" fill="#00C4F0" fill-opacity="1.000000" fill-rule="nonzero"/>
		<path id="Vector" d="M0 58.69L13.97 58.69L13.97 75L0 75L0 58.69Z" fill="#00C4F0" fill-opacity="1.000000" fill-rule="nonzero"/>
	</g>
</svg>
