<svg width="75.000000" height="75.000000" viewBox="0 0 75 75" fill="none" xmlns="http://www.w3.org/2000/svg" xmlns:xlink="http://www.w3.org/1999/xlink">
	<desc>
			Created with Pixso.
	</desc>
	<defs>
		<clipPath id="clip1_111">
			<rect id="ic:baseline-auto-awesome-motion" rx="-0.500000" width="74.000000" height="74.000000" transform="translate(0.500000 0.500000)" fill="white" fill-opacity="0"/>
		</clipPath>
	</defs>
	<rect id="ic:baseline-auto-awesome-motion" rx="-0.500000" width="74.000000" height="74.000000" transform="translate(0.500000 0.500000)" fill="#FFFFFF" fill-opacity="0"/>
	<g clip-path="url(#clip1_111)">
		<path id="Vector" d="M43.75 6.25L12.5 6.25C10.84 6.25 9.25 6.9 8.08 8.08C6.9 9.25 6.25 10.84 6.25 12.5L6.25 43.75L12.5 43.75L12.5 12.5L43.75 12.5L43.75 6.25ZM56.25 18.75L25 18.75C23.34 18.75 21.75 19.4 20.58 20.58C19.4 21.75 18.75 23.34 18.75 25L18.75 56.25L25 56.25L25 25L56.25 25L56.25 18.75ZM62.5 31.25L37.5 31.25C35.84 31.25 34.25 31.9 33.08 33.08C31.9 34.25 31.25 35.84 31.25 37.5L31.25 62.5C31.25 64.15 31.9 65.74 33.08 66.91C34.25 68.09 35.84 68.75 37.5 68.75L62.5 68.75C65.93 68.75 68.75 65.93 68.75 62.5L68.75 37.5C68.75 34.06 65.93 31.25 62.5 31.25Z" fill="#00C4F0" fill-opacity="1.000000" fill-rule="nonzero"/>
	</g>
</svg>
