<svg width="62.502930" height="57.606262" viewBox="0 0 62.5029 57.6063" fill="none" xmlns="http://www.w3.org/2000/svg" xmlns:xlink="http://www.w3.org/1999/xlink">
	<desc>
			Created with Pixso.
	</desc>
	<defs/>
	<path id="Vector" d="M16.79 43.74L20.7 38.86L8.12 28.8L20.7 18.74L16.79 13.86L1.17 26.36C0.8 26.65 0.51 27.02 0.3 27.45C0.1 27.87 0 28.33 0 28.8C0 29.27 0.1 29.73 0.3 30.16C0.51 30.58 0.8 30.95 1.17 31.24L16.79 43.74ZM45.7 13.86L41.79 18.74L54.37 28.8L41.79 38.86L45.7 43.74L61.32 31.24C61.69 30.95 61.99 30.58 62.19 30.16C62.39 29.73 62.5 29.27 62.5 28.8C62.5 28.33 62.39 27.87 62.19 27.45C61.99 27.02 61.69 26.65 61.32 26.36L45.7 13.86ZM40.55 1.35L28.05 57.6L21.94 56.25L34.44 0L40.55 1.35Z" fill="#00C4F0" fill-opacity="1.000000" fill-rule="nonzero"/>
</svg>
