<svg width="42.873047" height="25.224609" viewBox="0 0 42.873 25.2246" fill="none" xmlns="http://www.w3.org/2000/svg" xmlns:xlink="http://www.w3.org/1999/xlink">
	<desc>
			Created with Pixso.
	</desc>
	<defs/>
	<path id="Ps" d="M33.25 25.22C29.9 25.22 26.01 23.99 22.51 20.86L25.68 17.08C27.77 19 30.41 20.33 33.16 20.33C35.31 20.33 37.7 19.45 37.7 17.52C37.7 15.16 34.06 14.87 30.35 14.09C26.13 13.21 22.76 11.46 22.76 7.41C22.76 3.28 25.98 0 31.72 0C34.91 0 38.23 1.07 41.02 3.26L38.03 7.01C36.36 5.6 33.92 4.76 31.65 4.76C29.81 4.76 27.86 5.43 27.86 6.94C27.86 8.59 29.93 9.07 33.5 9.66C37.74 10.37 42.87 11.79 42.87 17.5C42.87 21.95 38.67 25.22 33.25 25.22ZM5.25 15.08L5.25 25.22L0 25.22L0 0.03L12.33 0.03C14.48 0.03 15.96 0.43 17.17 1.21C19.21 2.47 20.53 4.71 20.53 7.57C20.53 10.33 19.21 12.6 17.13 13.9C15.94 14.66 14.48 15.08 12.33 15.08L5.25 15.08ZM5.25 4.88L5.25 10.24L11.65 10.24C12.65 10.24 13.13 10.17 13.57 10C14.55 9.59 15.34 8.78 15.34 7.57C15.34 6.39 14.58 5.55 13.57 5.15C13.14 4.97 12.67 4.88 11.63 4.88L5.25 4.88Z" fill="#00C4F0" fill-opacity="1.000000" fill-rule="evenodd"/>
</svg>
