<svg width="31.587891" height="25.224609" viewBox="0 0 31.5879 25.2246" fill="none" xmlns="http://www.w3.org/2000/svg" xmlns:xlink="http://www.w3.org/1999/xlink">
	<desc>
			Created with Pixso.
	</desc>
	<defs/>
	<path id="UI" d="M0 13.67L0 0L5.25 0L5.25 13.76C5.25 14.57 5.36 15.36 5.57 16.11C6.24 18.47 7.98 20.35 10.89 20.35C13.85 20.35 15.59 18.47 16.24 16.11C16.45 15.36 16.55 14.57 16.55 13.76L16.55 0L21.81 0L21.81 13.67C21.81 14.78 21.67 15.87 21.44 16.89C20.26 21.77 16.4 25.22 10.91 25.22C5.43 25.22 1.54 21.77 0.36 16.89C0.12 15.87 0 14.78 0 13.67ZM31.58 25.2L26.31 25.2L26.31 0L31.58 0L31.58 25.2Z" fill="#00C4F0" fill-opacity="1.000000" fill-rule="evenodd"/>
</svg>
