<svg width="49.253906" height="25.224609" viewBox="0 0 49.2539 25.2246" fill="none" xmlns="http://www.w3.org/2000/svg" xmlns:xlink="http://www.w3.org/1999/xlink">
	<desc>
			Created with Pixso.
	</desc>
	<defs/>
	<path id="Ux" d="M0 13.67L0 0L5.25 0L5.25 13.76C5.25 14.57 5.36 15.36 5.57 16.11C6.24 18.47 7.98 20.35 10.89 20.35C13.85 20.35 15.59 18.47 16.24 16.11C16.45 15.36 16.55 14.57 16.55 13.76L16.55 0L21.81 0L21.81 13.67C21.81 14.78 21.67 15.87 21.44 16.89C20.26 21.77 16.4 25.22 10.91 25.22C5.43 25.22 1.54 21.77 0.36 16.89C0.12 15.87 0 14.78 0 13.67ZM30.37 25.2L23.88 25.2L33.52 11.9L24.9 0.01L31.35 0.01L36.56 7.62L41.76 0.01L48.21 0.01L39.6 11.9L49.25 25.2L42.75 25.2L36.56 16.13L30.37 25.2Z" fill="#00C4F0" fill-opacity="1.000000" fill-rule="evenodd"/>
</svg>
